<svg xmlns="http://www.w3.org/2000/svg" width="40" height="40" fill="none"><path fill="#fff" d="M20 0c11.046 0 20 8.954 20 20s-8.954 20-20 20S0 31.046 0 20 8.954 0 20 0Zm-2.602 4.824-.21.036-4.777-2.677-1.096 5.104-.116.08-5.039-.913.807 5.348-.077.123-5.153 1.35 3.03 4.258-4.055 3.13 4.325 3.049-2.45 4.531 5.003.992-.722 5.087 5.288-.897 1.487 4.87 3.698-2.863 2.885 3.844 2.85-3.932 3.816 2.808 1.091-4.801 4.977 1.367-.467-5.484 5.363-1.19-2.754-4.474 4.188-2.999-3.973-2.641 2.712-4.526-4.703-1.152.72-5.4-4.831.814a2.258 2.258 0 0 1-.084-.062L27.989 2.06l-4.601 2.92c-.087-.019-.174-.04-.261-.057L20.226.724l-2.828 4.1Z"/><circle cx="20.001" cy="20" r="15.101" stroke="#fff" stroke-width="1.005"/><mask id="a" width="30" height="30" x="5" y="5" maskUnits="userSpaceOnUse" style="mask-type:alpha"><circle cx="20" cy="20" r="14.156" fill="#D9D9D9"/></mask><g fill="#fff" mask="url(#a)"><circle cx="20" cy="20" r="2.668"/><path d="M29.638 11.136s.14 3.237-1.825 5.05c-1.964 1.813-5.288 1.517-5.288 1.517s.185-3.384 2.15-5.198c1.964-1.813 4.963-1.369 4.963-1.369Zm-9.655-4.241s2.493 2.068 2.52 4.741c.027 2.673-2.422 4.939-2.422 4.939s-2.385-2.407-2.413-5.08c-.027-2.673 2.315-4.6 2.315-4.6Zm-9.837 4.32s3.212-.424 5.19 1.373c1.98 1.797 1.977 5.134 1.977 5.134s-3.387.114-5.366-1.683c-1.98-1.797-1.8-4.824-1.8-4.824Zm-3.27 9.055s1.987-2.559 4.657-2.672c2.671-.113 5.015 2.261 5.015 2.261s-2.33 2.462-5 2.576c-2.67.113-4.672-2.165-4.672-2.165Zm3.341 8.51s-.139-3.236 1.825-5.049c1.965-1.813 5.288-1.517 5.288-1.517s-.185 3.384-2.15 5.198c-1.963 1.813-4.963 1.369-4.963 1.369Zm9.809 4.324s-2.47-2.096-2.468-4.769c.003-2.673 2.477-4.912 2.477-4.912s2.358 2.434 2.356 5.107c-.002 2.673-2.365 4.574-2.365 4.574Zm9.566-4.274s-3.218.366-5.165-1.466c-1.947-1.832-1.884-5.168-1.884-5.168s3.388-.053 5.335 1.779c1.947 1.832 1.714 4.855 1.714 4.855Zm3.531-8.52s-2.19 2.386-4.862 2.279c-2.67-.107-4.81-2.666-4.81-2.666s2.523-2.262 5.194-2.156c2.67.107 4.478 2.542 4.478 2.542Z"/></g></svg>